SplineFontDB: 3.2
FontName: NotoSansTagalog-Regular
FullName: Noto Sans Tagalog Regular
FamilyName: Noto Sans Tagalog
Weight: Book
Copyright: Copyright (c) 2020, The Noto Sans Tagalog Project Authors\n\nThis Font Software is licensed under the SIL Open Font License, Version 1.1.
Version: 3.0
ItalicAngle: 0
UnderlinePosition: -125
UnderlineWidth: 50
Ascent: 800
Descent: 200
InvalidEm: 0
UFOAscent: 800
UFODescent: -200
LayerCount: 2
Layer: 0 0 "Back" 1
Layer: 1 0 "public.default" 0 "glyphs"
StyleMap: 0x0040
FSType: 0
OS2Version: 0
OS2_WeightWidthSlopeOnly: 0
OS2_UseTypoMetrics: 0
CreationTime: 1596957163
ModificationTime: 1596973113
PfmFamily: 16
TTFWeight: 400
TTFWidth: 5
LineGap: 0
VLineGap: 0
Panose: 2 11 5 2 4 5 4 2 2 4
OS2TypoAscent: 1069
OS2TypoAOffset: 0
OS2TypoDescent: -293
OS2TypoDOffset: 0
OS2TypoLinegap: 0
OS2WinAscent: 1069
OS2WinAOffset: 0
OS2WinDescent: 293
OS2WinDOffset: 0
HheadAscent: 1069
HheadAOffset: 0
HheadDescent: -293
HheadDOffset: 0
OS2SubXSize: 650
OS2SubYSize: 600
OS2SubXOff: 0
OS2SubYOff: 75
OS2SupXSize: 650
OS2SupYSize: 600
OS2SupXOff: 0
OS2SupYOff: 350
OS2StrikeYSize: 50
OS2StrikeYPos: 322
OS2CapHeight: 714
OS2XHeight: 536
OS2Vendor: 'GOOG'
OS2CodePages: 00000001.00000000
OS2UnicodeRanges: 80000003.00002000.00100000.00000000
Lookup: 258 0 0 "PamudpodKern" { "PamudpodKern-1" [150,0,2] } ['kern' ('DFLT' <'dflt' > 'hano' <'dflt' > 'tagl' <'TGL ' 'dflt' > ) ]
Lookup: 260 0 0 "markMarkPositioninginTagaloglookup0" { "markMarkPositioninginTagaloglookup0 subtable"  } ['mark' ('DFLT' <'dflt' > 'hano' <'dflt' > 'tagl' <'dflt' > 'tagl' <'TGL ' > ) ]
Lookup: 260 0 0 "markMarkPositioninginTagaloglookup1" { "markMarkPositioninginTagaloglookup1 subtable"  } ['mark' ('DFLT' <'dflt' > 'hano' <'dflt' > 'tagl' <'dflt' > 'tagl' <'TGL ' > ) ]
Lookup: 262 0 0 "Mkmk" { "Mkmk-1"  } ['mkmk' ('DFLT' <'dflt' > 'hano' <'dflt' > 'tagl' <'TGL ' 'dflt' > ) ]
MarkAttachClasses: 1
DEI: 91125
KernClass2: 3 2 "PamudpodKern-1"
 28 uni1700 uni170C uni170C.avar

StartChar: .notdef
Encoding: 0 0 0
GlifName: _notdef
Width: 600
VWidth: 0
Flags: MW
LayerCount: 2
Fore
SplineSet
94 0 m 257
 94 714 l 257
 505 714 l 257
 505 0 l 257
 94 0 l 257
145 51 m 257
 454 51 l 257
 454 663 l 257
 145 663 l 257
 145 51 l 257
EndSplineSet
EndChar

StartChar: uni1700
Encoding: 4 5888 4
GlifName: uni1700
Width: 1014
VWidth: 0
GlyphClass: 2
Flags: MW
LayerCount: 2
Fore
SplineSet
84 373.007 m 257
 84 442.993 l 257
 258 442.993 l 257
 258 373.007 l 257
 84 373.007 l 257
84 518.007 m 257
 84 587.993 l 257
 454 587.993 l 257
 454 518.007 l 257
 84 518.007 l 257
91.834 710.388 m 257
 102.098 779.623 l 257
 152.409 771.701 195.013 750.463 229.91 715.908 c 256
 239.299 706.329 247.892 696.258 255.69 685.694 c 256
 257.957 682.53 260.152 679.363 262.276 676.192 c 256
 292.015 630.141 307.067 574.718 307.433 509.925 c 256
 307.402 503.399 307.241 496.852 306.951 490.285 c 256
 304.968 453.273 293.703 392.844 273.157 308.998 c 256
 271.218 301.074 269.496 293.913 267.989 287.514 c 256
 259.403 250.444 254.562 219.706 253.467 195.3 c 256
 253.356 191.796 253.291 188.47 253.271 185.32 c 256
 253.528 157.548 258.254 133.899 267.451 114.372 c 256
 272.586 104.434 278.577 95.95 285.426 88.9195 c 256
 287.051 87.3623 288.357 86.1324 289.343 85.2299 c 256
 298.406 77.9095 308.318 72.8511 319.079 70.0548 c 256
 324.086 69.0813 329.155 68.5357 334.285 68.418 c 256
 344.023 68.69 353.749 70.5015 363.462 73.8523 c 256
 378.112 79.5955 393.042 88.8452 408.252 101.601 c 256
 412.648 105.463 416.786 109.311 420.665 113.147 c 256
 443.347 136.159 467.903 168.637 494.333 210.582 c 258
 605.333 387.582 l 258
 611.682 397.744 620.488 412.208 631.753 430.973 c 256
 659.389 476.923 681.633 511.168 698.485 533.709 c 256
 709.166 547.684 719.847 560.057 730.529 570.829 c 256
 742.582 582.672 754.707 592.863 766.902 601.403 c 256
 797.91 622.079 830.429 633.264 864.459 634.959 c 258
 864.607 634.966 l 258
 866.584 635.036 868.514 635.071 870.394 635.071 c 256
 901.869 634.686 930.555 626.241 956.453 609.736 c 258
 956.587 609.649 l 258
 965.622 603.485 973.614 596.989 980.562 590.161 c 256
 996.193 574.051 1007.97 555.323 1015.89 533.976 c 257
 950.108 510.024 l 257
 945.312 522.322 938.964 532.536 931.065 540.664 c 256
 926.837 544.647 922.595 548.095 918.338 551.008 c 256
 902.583 560.665 886.602 565.357 870.394 565.084 c 258
 867.391 565.034 l 258
 847.552 564.7 827.18 557.526 806.276 543.514 c 256
 797.128 536.979 788.378 529.584 780.027 521.331 c 256
 771.081 512.201 762.549 502.299 754.432 491.624 c 256
 738.625 470.381 717.749 438.166 691.804 394.978 c 256
 679.888 375.137 670.843 360.284 664.667 350.418 c 258
 553.667 173.418 l 258
 523.889 126.288 496.054 89.6985 470.163 63.65 c 256
 464.306 57.8854 458.834 52.8016 453.748 48.3985 c 256
 431.281 29.6521 409.199 16.2194 387.501 8.10047 c 258
 387.374 8.05364 l 258
 369.12 1.76084 351.372 -1.44653 334.132 -1.56847 c 256
 323.04 -1.51939 312.57 -0.332039 302.722 1.99359 c 256
 280.202 7.8014 260.455 17.9175 243.482 32.3418 c 258
 243.184 32.6017 l 258
 240.386 35.1442 237.968 37.4177 235.929 39.4221 c 256
 223.093 52.6354 212.633 67.3708 204.549 83.6282 c 256
 190.509 113.61 183.421 147.508 183.284 185.32 c 256
 183.321 190.142 183.404 194.376 183.533 198.022 c 256
 184.916 227.622 190.357 262.803 199.855 303.564 c 256
 201.581 310.88 203.362 318.282 205.196 325.769 c 256
 224.777 405.821 235.395 461.803 237.049 493.715 c 256
 237.299 499.734 237.432 505.137 237.447 509.925 c 256
 236.959 561.306 225.718 603.934 203.724 637.808 c 256
 201.881 640.532 200.348 642.743 199.125 644.443 c 256
 192.909 652.737 186.671 660.06 180.413 666.411 c 256
 155.731 690.412 126.205 705.071 91.834 710.388 c 257
EndSplineSet
EndChar

StartChar: uni1701
Encoding: 5 5889 5
GlifName: uni1701
Width: 1011
VWidth: 0
GlyphClass: 2
Flags: MW
LayerCount: 2
Fore
SplineSet
31.4504 105.636 m 257
 62.5496 168.364 l 257
 96.5696 151.885 131.814 144.368 168.283 145.813 c 256
 205.902 148.352 240.189 159.246 271.144 178.495 c 256
 284.701 187.54 296.746 197.267 307.279 207.676 c 256
 321.579 222.309 333.625 238.384 343.417 255.902 c 256
 360.504 288.761 369.035 323.065 369.007 358.812 c 257
 438.943 360.871 l 257
 442.077 309.422 461.409 259.859 487.443 224.077 c 257
 526.212 258.199 557.283 308.922 567.552 365.176 c 257
 636.991 358.586 l 257
 636.818 313.628 647.23 272.652 668.228 235.657 c 256
 678.205 219.298 689.081 205.156 700.857 193.232 c 256
 710.441 183.895 720.369 175.842 730.642 169.071 c 256
 757.779 152.665 785.547 144.634 813.946 144.979 c 256
 843.799 146.632 869.948 156.152 892.393 173.538 c 257
 935.607 118.462 l 257
 900.569 91.4631 860.824 76.9869 816.372 75.0336 c 258
 815.739 75.0146 l 258
 751.132 74.2545 689.291 106.179 651.359 143.734 c 256
 634.878 160.515 620.393 179.31 607.905 200.119 c 256
 600.983 211.959 595.173 224.134 590.209 236.016 c 257
 584.734 227.323 570 207 550.317 187.005 c 256
 535.365 171.816 518.859 158.695 501.507 146.933 c 258
 476.88 130.378 l 257
 456.504 152.021 l 258
 436.518 173.566 419.374 196.667 405.422 223.383 c 257
 392.268 198.815 375.46 177.03 356.776 158.179 c 256
 342.048 143.703 326.147 130.858 309.072 119.646 c 258
 308.639 119.369 l 257
 266.764 93.4058 221.253 78.9264 172.107 75.9302 c 258
 171.675 75.9081 l 258
 122.381 74.0243 75.6396 83.9338 31.4504 105.636 c 257
29.5971 515.974 m 257
 76.4029 568.026 l 257
 127.023 523.091 187.014 498.053 256.378 492.913 c 256
 310.965 489.556 385.228 502.742 479.166 532.47 c 258
 488.883 535.569 l 258
 588.639 567.345 666.909 583.346 723.693 583.573 c 256
 732.13 583.513 739.863 583.303 746.892 582.942 c 256
 838.844 577.604 917.291 543.134 980.209 483.277 c 257
 931.81 432.705 l 257
 880.2 481.381 817.249 508.167 742.957 513.066 c 256
 736.471 513.377 729.971 513.55 723.456 513.587 c 256
 673.475 513.223 602.425 498.334 510.306 468.922 c 258
 500.516 465.8 l 258
 397.457 433.075 314.492 418.837 251.622 423.087 c 256
 165.439 429.655 91.4302 460.617 29.5971 515.974 c 257
EndSplineSet
EndChar

StartChar: uni1702
Encoding: 6 5890 6
GlifName: uni1702
Width: 535
VWidth: 0
GlyphClass: 2
Flags: MW
LayerCount: 2
Fore
SplineSet
142.219 530.977 m 257
 109.775 593.02 l 257
 219.803 649.91 353.151 662.273 428.714 585.571 c 256
 454 558.362 474.56 520.791 468.685 471.347 c 256
 460.911 418.341 428.908 380.254 392.195 355.024 c 257
 448.658 325.842 496.951 265.983 488.79 182.204 c 256
 480.531 118.768 442.845 70.3936 397.857 41.2075 c 256
 302.244 -18.7701 164.819 -12.965 47.5517 31.2836 c 257
 72.386 96.74 l 257
 192.03 51.9064 340.031 53.9685 400.658 139.498 c 256
 419.697 169.675 426.576 207.047 409.649 244.097 c 256
 380.952 297.771 330.773 310.611 245.882 311.007 c 256
 235.954 311.007 226.026 311.007 216.098 311.007 c 258
 198 311.007 l 257
 198 380.993 l 257
 216 380.993 l 258
 302.344 381.325 354.591 397.438 388.15 448.739 c 256
 398.37 466.98 403.208 486.834 395.646 510.302 c 256
 382.172 542.215 353.251 559.413 314.309 566.468 c 256
 260.196 574.291 202.832 562.461 142.219 530.977 c 257
EndSplineSet
EndChar

StartChar: uni1703
Encoding: 7 5891 7
GlifName: uni1703
Width: 984
VWidth: 0
GlyphClass: 2
Flags: MW
AnchorPoint: "Anchor1" 539 0 basechar 0
AnchorPoint: "Anchor0" 488 693 basechar 0
AnchorPoint: "Anchor-1" 539 0 basechar 0
AnchorPoint: "Anchor-0" 488 693 basechar 0
LayerCount: 2
Fore
SplineSet
463.007 482 m 257
 532.993 482 l 257
 532.993 134 l 257
 463.007 134 l 257
 463.007 482 l 257
46.009 107.496 m 257
 95.991 156.504 l 257
 96.547 155.937 97.1042 155.375 97.6628 154.816 c 256
 136.469 116.755 183.281 95.7936 238.098 91.9313 c 256
 266.224 90.6557 294.861 93.8265 324.009 101.444 c 256
 345.97 107.589 374.975 118.472 411.021 134.094 c 258
 549.089 194.123 l 258
 593.598 213.285 628.619 226.465 654.149 233.662 c 258
 654.419 233.736 l 258
 695.291 244.605 734.29 249.347 771.415 247.965 c 258
 771.596 247.957 l 257
 832.649 244.511 887.599 226.561 936.445 194.108 c 257
 897.555 135.892 l 257
 858.748 161.399 815.698 175.449 768.405 178.042 c 256
 737.888 179.027 706.066 175.089 672.938 166.229 c 256
 649.734 159.598 617.725 147.481 576.911 129.877 c 258
 438.979 69.9063 l 258
 399.075 52.652 366.884 40.6511 342.408 33.9037 c 258
 342.163 33.8379 l 258
 305.069 24.2075 269.048 20.2809 234.1 22.0581 c 258
 233.704 22.0817 l 257
 160.602 27.3594 98.7561 55.105 48.1653 105.319 c 256
 47.4437 106.04 46.725 106.766 46.009 107.496 c 257
46.009 463.496 m 257
 95.991 512.504 l 257
 96.547 511.937 97.1042 511.375 97.6628 510.816 c 256
 136.469 472.755 183.281 451.793 238.098 447.931 c 256
 266.222 446.656 294.859 449.827 324.009 457.444 c 256
 345.967 463.588 374.971 474.471 411.021 490.094 c 258
 549.088 550.123 l 258
 593.596 569.285 628.617 582.464 654.15 589.662 c 258
 654.419 589.736 l 258
 695.292 600.604 734.29 605.347 771.415 603.965 c 258
 771.596 603.957 l 257
 832.649 600.511 887.599 582.561 936.445 550.108 c 257
 897.555 491.892 l 257
 858.748 517.399 815.698 531.449 768.405 534.042 c 256
 737.889 535.027 706.066 531.089 672.938 522.228 c 256
 649.732 515.597 617.723 503.48 576.912 485.877 c 258
 438.979 425.906 l 258
 399.071 408.651 366.88 396.65 342.407 389.904 c 258
 342.163 389.838 l 258
 305.067 380.208 269.046 376.281 234.1 378.058 c 258
 233.704 378.082 l 257
 160.603 383.359 98.7566 411.105 48.1653 461.319 c 256
 47.4438 462.04 46.725 462.766 46.009 463.496 c 257
EndSplineSet
EndChar

StartChar: uni1704
Encoding: 8 5892 8
GlifName: uni1704
Width: 837
VWidth: 0
GlyphClass: 2
Flags: HMW
AnchorPoint: "Anchor1" 545 0 basechar 0
AnchorPoint: "Anchor0" 400 693 basechar 0
AnchorPoint: "Anchor-1" 545 0 basechar 0
AnchorPoint: "Anchor-0" 400 693 basechar 0
LayerCount: 2
Fore
SplineSet
109.775 593.021 m 257
 165.797315004 621.986840316 227.86529685 639.409397536 285.273096238 639.409397536 c 0
 340.614392466 639.409397536 391.624971977 623.218580872 428.714 585.57 c 256
 451.049522521 561.537694991 469.696330188 529.420332447 469.696330188 488.177337405 c 0
 469.696330188 424.842818476 430.887790215 381.614610326 392.195 355.023 c 257
 444.442243082 328.020771986 489.693951453 274.750610818 489.693951453 200.566986334 c 0
 489.693951453 125.788772994 445.185593164 71.9120928521 397.857 41.207 c 256
 349.103588044 10.6242574274 289.478986214 -2.85474321147 227.198889424 -2.85474321147 c 0
 167.33805996 -2.85474321147 105.024033724 9.59741405282 47.5518 31.2832 c 257
 72.3857 96.7402 l 257
 121.663379051 78.2745024065 175.751357982 67.7641278698 226.563831588 67.7641278698 c 0
 299.122079836 67.7641278698 365.001331623 89.1955551995 400.658 139.498 c 256
 412.207461655 157.804008948 419.282173175 178.757701056 419.282173175 200.681055396 c 0
 419.282173175 214.897804877 416.307115768 229.522316682 409.648 244.097 c 256
 380.952 297.771 330.773 310.611 245.882 311.007 c 258
 198 311.007 l 257
 198 380.993 l 257
 216 380.993 l 258
 304.613289445 381.33372561 399.335013533 403.628963262 399.335013533 487.726113126 c 0
 399.335013533 545.675851949 341.002387471 568.803495688 281.612779862 568.803495688 c 0
 237.232558168 568.803495688 190.768307459 556.194997125 142.219 530.978 c 257
 109.775 593.021 l 257
524.031568643 538.139642295 m 0
 490.308857942 538.139642295 464.229735224 524.49825088 442.8 508.846 c 257
 401.144 565.113 l 257
 434.139120999 589.076643987 473.222024954 608.180008811 524.27462365 608.180008811 c 0
 620.401214969 608.180008811 671.23408184 539.388099758 679.305 450.608 c 256
 680.344447073 437.673453102 681.027523697 397.788064804 680.993 350 c 258
 680.993 174.126 l 258
 681.927733278 91.0918040893 712.279555424 72.1342931053 791.761 67.9491 c 258
 811.761 66.9491 l 257
 808.239 -2.94915 l 257
 788.239 -1.94915 l 258
 725.792031013 1.43121601881 690.954107171 11.1450483405 657.465 41.0582 c 256
 624.010906292 72.8956134976 611.579275974 108.494886882 611.008 173.752 c 258
 611.007 350 l 258
 611.031649415 396.369200833 610.441574627 433.770884772 609.594 444.38 c 256
 604.005746776 497.559576747 581.06609288 538.139642295 524.031568643 538.139642295 c 0
EndSplineSet
EndChar

StartChar: uni1705
Encoding: 9 5893 9
GlifName: uni1705
Width: 1011
VWidth: 0
GlyphClass: 2
Flags: MW
AnchorPoint: "Anchor1" 564 0 basechar 0
AnchorPoint: "Anchor0" 488 693 basechar 0
AnchorPoint: "Anchor-1" 564 0 basechar 0
AnchorPoint: "Anchor-0" 488 693 basechar 0
LayerCount: 2
Fore
SplineSet
748.971 50.1687 m 257
 731.029 117.831 l 257
 774.32 129.645 810.47 149.914 839.478 178.64 c 256
 841.699 180.861 843.884 183.139 846.036 185.473 c 256
 862.457 204.337 874.309 223.687 881.591 243.525 c 256
 888.688 265.734 890.461 286.643 886.91 306.252 c 256
 882.188 325.777 873.681 341.827 861.389 354.403 c 258
 858.1 357.538 l 258
 842.081 370.503 824.2 377.67 804.458 379.038 c 256
 786.398 379.212 768.602 375.256 751.071 367.169 c 256
 735.754 359.323 718.103 347.224 698.119 330.873 c 256
 684.506 319.824 672.133 310.263 661 302.192 c 256
 643.599 289.575 629.226 280.595 617.884 275.253 c 258
 617.243 274.963 l 258
 600.245 267.689 583.161 262.652 565.993 259.851 c 258
 565.465 259.771 l 258
 552.053 257.973 535.564 257.051 516 257.007 c 258
 478 257.007 l 257
 478 326.993 l 257
 516 326.993 l 258
 532.617 327.064 545.709 327.739 555.274 329.018 c 256
 566.945 331.064 578.087 334.357 588.7 338.895 c 256
 602.936 345.94 624.663 361.351 653.881 385.127 c 256
 678.765 405.409 700.927 420.396 720.365 430.09 c 258
 720.615 430.213 l 258
 749.415 443.485 778.257 449.738 807.139 448.975 c 258
 807.542 448.962 l 257
 844.283 446.482 876.391 433.665 903.867 410.51 c 256
 904.102 410.313 904.332 410.111 904.558 409.904 c 256
 907.036 407.614 909.146 405.612 910.887 403.9 c 256
 933.305 380.882 948.363 353.011 955.462 320.426 c 258
 955.54 320.02 l 258
 961.493 287.419 958.92 254.357 947.821 220.836 c 258
 947.613 220.236 l 258
 936.88 191.057 920.39 163.888 898.143 138.728 c 258
 897.782 138.329 l 258
 894.906 135.2 891.97 132.138 888.975 129.143 c 256
 850.402 91.141 803.733 64.8163 748.971 50.1687 c 257
162.843 642.514 m 257
 197.157 581.486 l 257
 165.358 563.599 l 258
 148.961 553.914 138.736 546.9 130.623 537.854 c 256
 124.006 528.069 120.775 518.226 120.927 508.323 c 256
 122.716 495.56 128.095 485.593 136.34 477.823 c 256
 146.947 469.957 159.05 465.68 172.651 464.991 c 256
 190.227 465.456 215.263 472.915 247.759 487.367 c 256
 271.131 497.52 292.211 504.874 311 509.43 c 256
 326.235 513.124 339.963 514.978 352.185 514.993 c 258
 352.634 514.99 l 257
 383.337 513.672 410.686 505.103 434.682 489.281 c 257
 435.52 488.703 l 258
 443.318 482.971 450.352 477.019 456.622 470.847 c 256
 469.766 457.337 480.685 442.11 489.381 425.166 c 258
 489.517 424.897 l 257
 508.154 385.523 516.641 336.202 514.977 276.936 c 258
 514.968 276.67 l 258
 513.547 243.132 509.201 214.286 501.93 190.133 c 258
 501.735 189.513 l 258
 491.217 158.337 476.058 132.709 456.255 112.628 c 256
 454.788 111.16 453.295 109.723 451.777 108.316 c 258
 451.447 108.009 l 257
 424.651 84.986 393.511 71.2201 358.025 66.712 c 258
 357.417 66.6438 l 258
 332.468 64.2944 301.746 66.633 265.25 73.6595 c 256
 233.59 79.7843 211.343 82.8313 198.51 82.8005 c 256
 166.021 81.1091 129.319 66.4424 137.448 28.7951 c 256
 142.496 15.5285 152.033 6.43696 166.807 4.88124 c 257
 161.234 -64.8845 l 257
 140.251 -62.8117 121.392 -55.4516 104.656 -42.804 c 258
 103.995 -42.2942 l 257
 103.358 -41.7525 l 258
 100.852 -39.5328 98.7293 -37.5761 96.9914 -35.8822 c 256
 84.6709 -23.0471 75.7905 -8.15472 70.3502 8.79489 c 258
 70.1076 9.57798 l 257
 65.1484 30.1234 65.6218 50.3747 71.5278 70.3318 c 258
 71.7455 71.0444 l 257
 71.9932 71.7466 l 258
 78.201 88.3057 87.5591 102.958 100.067 115.703 c 256
 101.821 117.406 103.259 118.781 104.381 119.83 c 258
 104.915 120.319 l 257
 105.467 120.784 l 258
 129.817 140.698 160.16 151.356 196.495 152.759 c 258
 196.775 152.768 l 258
 215.037 152.894 242.362 149.418 278.75 142.341 c 256
 308.703 136.518 332.411 134.48 349.873 136.227 c 256
 371.389 139.293 389.614 147.213 404.549 159.988 c 256
 405.296 160.687 406.032 161.399 406.758 162.125 c 256
 419.015 174.963 428.461 191.242 435.095 210.962 c 256
 440.632 229.944 443.943 252.689 445.027 279.197 c 256
 446.648 343.99 436.681 391.078 407.125 421.35 c 256
 403.08 425.203 399.157 428.538 395.356 431.356 c 256
 381.976 439.728 367.323 444.279 351.397 445.008 c 256
 333.209 444.541 308.086 437.311 276.028 423.316 c 256
 258.422 415.524 242.02 409.312 227 404.715 c 256
 205.608 398.167 187.018 394.897 171.743 395.008 c 258
 171.315 395.011 l 257
 140.487 396.425 113.925 406.072 91.6282 423.95 c 258
 91.1325 424.355 l 257
 90.6511 424.778 l 258
 88.2708 426.941 86.2681 428.818 84.6431 430.407 c 256
 64.9865 450.755 53.818 474.943 51.1374 502.97 c 258
 51.0773 503.665 l 257
 50.224 531.858 58.1596 557.377 74.8841 580.224 c 258
 75.2881 580.766 l 257
 75.7133 581.293 l 258
 78.4979 584.598 81.1795 587.567 83.758 590.201 c 256
 95.5072 601.612 111.072 612.975 130.452 624.291 c 258
 130.647 624.404 l 257
 162.843 642.514 l 257
EndSplineSet
EndChar

StartChar: uni1706
Encoding: 10 5894 10
GlifName: uni1706
Width: 975
VWidth: 0
GlyphClass: 2
Flags: MW
AnchorPoint: "Anchor1" 539 0 basechar 0
AnchorPoint: "Anchor0" 488 693 basechar 0
AnchorPoint: "Anchor-1" 539 0 basechar 0
AnchorPoint: "Anchor-0" 488 693 basechar 0
LayerCount: 2
Fore
SplineSet
146.207 396.101 m 257
 132.114 386.494 129.236 367.926 142.102 354.244 c 256
 151.492 345.84 164.975 341.036 181.112 340.985 c 256
 229.753 343.906 267.314 373.389 302.023 401.243 c 256
 314.193 411.118 331.378 425.496 353.577 444.375 c 256
 416.719 497.769 466.37 535.089 502.531 556.337 c 256
 572.132 596.123 643.091 620.211 715.522 628.613 c 256
 797.873 637.123 878.448 623.963 940.392 600.737 c 257
 915.718 535.221 l 257
 865.953 553.545 804.508 564.872 739.282 559.16 c 256
 670.993 552.207 603.818 529.431 537.758 490.832 c 256
 418.487 419.991 328 320.734 270.088 190.009 c 256
 243.085 127.417 226.677 63.0712 220.863 -3.02984 c 257
 151.134 2.9859 l 257
 160.003 102.328 194.28 204.258 237.693 281.556 c 257
 218.64 275.205 200.372 271.461 182.499 271.01 c 256
 132.113 270.973 93.1879 294.009 75.1883 327.383 c 256
 47.6466 380.736 73.1554 432.983 109.793 455.899 c 257
 146.207 396.101 l 257
EndSplineSet
EndChar

StartChar: uni1707
Encoding: 11 5895 11
GlifName: uni1707
Width: 1048
VWidth: 0
GlyphClass: 2
Flags: MW
AnchorPoint: "Anchor1" 552 0 basechar 0
AnchorPoint: "Anchor0" 527 693 basechar 0
AnchorPoint: "Anchor-1" 552 0 basechar 0
AnchorPoint: "Anchor-0" 527 693 basechar 0
LayerCount: 2
Fore
SplineSet
218.251 483.749 m 257
 267.749 434.251 l 257
 251.86 418.363 l 258
 204.544 370.371 166.897 339.478 166.897 270 c 256
 166.897 193.422 232.641 144.971 310.257 144.971 c 256
 408 144.971 634.055 232.99 730.517 232.99 c 256
 828 232.99 925.125 201.493 999.598 138.729 c 257
 954.402 85.2709 l 257
 890.125 139.273 819.587 164.33 747 164.33 c 256
 615 164.33 438.014 75.0293 307.743 75.0293 c 256
 195.348 75.0293 96.0845 146 96.0845 255.662 c 256
 96.0845 354.843 141.09 405.893 202.14 467.637 c 258
 218.251 483.749 l 257
48.3087 513.35 m 257
 93.6913 566.65 l 257
 153.038 516.023 223.45 492.986 308.296 492.986 c 256
 423 492.986 624.327 578.222 730.033 580.98 c 256
 835.071 583.72 927.571 549.661 1000.1 486.3 c 257
 953.905 433.7 l 257
 894.201 485.483 818.234 513.498 731.967 511.02 c 256
 624.03 507.92 468 423.012 309.591 423.012 c 256
 202 423.012 120.547 452.072 48.3087 513.35 c 257
EndSplineSet
EndChar

StartChar: uni1708
Encoding: 12 5896 12
GlifName: uni1708
Width: 850
VWidth: 0
GlyphClass: 2
Flags: MW
AnchorPoint: "Anchor1" 437 -88 basechar 0
AnchorPoint: "Anchor0" 410 693 basechar 0
AnchorPoint: "Anchor-0" 410 693 basechar 0
AnchorPoint: "Anchor-1" 437 -88 basechar 0
LayerCount: 2
Fore
SplineSet
176.985 11.7152 m 257
 111.015 -11.7152 l 257
 81.7143 71.8396 69.4016 155.817 74.0766 240.217 c 256
 84.7366 400.016 156.169 527.705 269.637 592.88 c 256
 317.62 619.328 371.24 633.847 426 633.958 c 256
 469.687 634.047 514.098 624.965 556.95 605.453 c 256
 685.997 543.802 767.661 408.843 777.943 239.883 c 256
 782.267 153.86 769.216 69.8156 738.79 -12.2513 c 257
 673.186 12.1869 l 257
 700.34 85.8578 711.964 160.501 708.057 236.117 c 256
 699.096 377.722 634.599 491.005 527.539 541.916 c 256
 491.333 558.03 454.197 564.947 418 563.787 c 256
 378.071 562.506 339.283 551.397 304.146 531.96 c 256
 209.823 476.544 152.66 369.944 143.923 235.783 c 256
 139.901 160.421 150.921 85.7321 176.985 11.7152 c 257
333.388 -33.0179 m 257
 361.97 17.7778 400.613 62.4955 446.764 95.1035 c 257
 426.731 104.578 406.698 114.053 386.666 123.528 c 256
 367.974 132.889 351.94 144.693 347.991 165.639 c 256
 343.619 193.896 358.005 212.294 375.348 223.623 c 258
 443.663 266.691 l 257
 424.222 276.023 404.781 285.354 385.341 294.686 c 256
 368.174 303.958 354 316 352.411 330.44 c 256
 349.157 360.018 359.447 373.515 374.549 384.409 c 256
 384.359 391.485 394.311 398.605 404 405.61 c 258
 437.961 430.163 l 257
 395 460.163 375.007 501.09 375.007 575 c 258
 375.007 599 l 257
 444.993 599 l 257
 444.993 575 l 258
 445.333 525.764 452.911 500.622 482.547 484.855 c 256
 505.063 472.875 518 458 518 432 c 256
 518 406.834 493 384 476.556 371.667 c 256
 465 363 440.676 345.786 440.676 345.786 c 257
 440.676 345.786 474 328.927 491.16 321.554 c 256
 512 312.599 531.741 293.218 532.513 266.124 c 256
 533 249 519.614 231.81 504.652 222.377 c 258
 434.683 178.266 l 257
 434.683 178.266 478 159 490.981 151.639 c 256
 514.19 138.478 528.783 120.001 528.783 94.2028 c 256
 528.783 67 500.461 48.0992 479.414 32.31 c 256
 445.259 4.94807 416.285 -28.2556 394.608 -66.9898 c 257
 333.388 -33.0179 l 257
EndSplineSet
EndChar

StartChar: uni1709
Encoding: 13 5897 13
GlifName: uni1709
Width: 1070
VWidth: 0
GlyphClass: 2
Flags: HMW
AnchorPoint: "Anchor1" 590 0 basechar 0
AnchorPoint: "Anchor0" 488 693 basechar 0
AnchorPoint: "Anchor-1" 590 0 basechar 0
AnchorPoint: "Anchor-0" 488 693 basechar 0
LayerCount: 2
Fore
SplineSet
678.2 381.486 m 257
 731.757 426.566 l 257
 755.392416497 398.332269251 777.040864214 369.143785108 796.702343153 339.001168199 c 0
 817.762962862 306.713556788 838.066493391 270.130631507 854.689 234.874 c 257
 791.324 205.098 l 257
 775.81729743 237.865541345 758.296567085 269.513527437 739.19084595 299 c 0
 720.598463002 327.694221267 700.267843269 355.1895546 678.2 381.486 c 257
57 371.007 m 257
 57 440.993 l 257
 179 440.993 l 258
 209.780670593 441.093393577 237.040274247 439.626517098 256.537 431.735 c 256
 288 419 306.352432891 399.638082604 297.584 342.644 c 258
 285.592 264.697 l 258
 278.882 220.432 275.129 190.698 274.332 175.495 c 256
 272.828437485 114.429259261 293.28357965 69.7295439986 347.099 64.9342 c 256
 399.641337819 63.8582103802 437.281435968 98.9331627168 469.113 130.563 c 256
 567.633686574 229.997035953 652.180981227 388.560651054 731.235 518.426 c 256
 769.561377542 579.581436153 815.827327372 635.380708707 903.999997549 635.380708707 c 0
 976 635.380708707 1030.59015125 589.111935257 1054.89 536.431 c 257
 991.122 507.535 l 257
 976.666068167 537.625122917 950 565.259765625 902.775390625 565.259765625 c 256
 858 565.259765625 817.883070705 525.013067023 790.837 481.691 c 258
 678.911 297.812 l 258
 622.14595975 204.847314541 582.662260624 145.389977961 518.611 81.0657 c 256
 474.27690051 37.1960725825 417.280950384 -9.36364197041 342.479 -4.90287 c 256
 289.03921127 -0.351721747152 247.557389008 30.3146768528 226.276 69.221 c 256
 210.428492983 99.0303978834 204.413 136 204.413 178.579 c 256
 204.413 211.383866219 221.582218125 308.93584871 228.416 353.356 c 256
 229.170724575 358.710950554 230.512140372 363.988314379 228.371 367.186 c 257
 222 370 196.081436058 371.033048702 179 371.007 c 258
 57 371.007 l 257
EndSplineSet
EndChar

StartChar: uni170A
Encoding: 14 5898 14
GlifName: uni170A_
Width: 847
VWidth: 0
GlyphClass: 2
Flags: MW
AnchorPoint: "Anchor1" 516 -79 basechar 0
AnchorPoint: "Anchor0" 484 693 basechar 0
AnchorPoint: "Anchor-1" 516 -79 basechar 0
AnchorPoint: "Anchor-0" 484 693 basechar 0
LayerCount: 2
Fore
SplineSet
565.732 -3.34848 m 256
 499.983 -3.34848 453.485 24.5564 420.679 62.9424 c 257
 374.123 28.7937 317.34 -3.83283 245.107 -3.83283 c 256
 102.206 -3.83283 33.0901 121.88 67.9809 269.225 c 256
 103.114 412.847 198.394 552.181 328.978 609.521 c 256
 371.607 627.406 414.574 636.349 457.878 636.349 c 256
 575.512 636.349 662.972 570.845 713.025 497.568 c 256
 754.315 435.687 780.676 363.144 780.676 267.795 c 256
 780.676 155.804 739.023 73.697 672.236 28.7513 c 257
 638.353 7.35146 602.852 -3.34848 565.732 -3.34848 c 256
458.428 566.327 m 256
 371.507 566.327 308.242 525.422 259.782 477.284 c 256
 191.757 407.387 128.952 312.402 128.952 194.192 c 256
 128.952 118.526 169.857 66.1036 244.949 66.1036 c 256
 312.4 66.1036 363.814 103.999 404.764 140.176 c 258
 437.615 169.384 l 257
 458.716 130.792 l 258
 478.919 94.9876 512.553 66.7881 565.147 66.7881 c 256
 665.57 66.7881 710.68 165.371 710.68 268.3 c 256
 710.68 394.537 654.623 485.603 574.555 534.271 c 256
 539.045 554.501 502.557 566.327 458.428 566.327 c 256
EndSplineSet
EndChar

StartChar: uni170B
Encoding: 15 5899 15
GlifName: uni170B_
Width: 1030
VWidth: 0
GlyphClass: 2
Flags: MW
AnchorPoint: "Anchor1" 577 0 basechar 0
AnchorPoint: "Anchor0" 488 693 basechar 0
AnchorPoint: "Anchor-1" 577 0 basechar 0
AnchorPoint: "Anchor-0" 488 693 basechar 0
LayerCount: 2
Fore
SplineSet
589.76 292.988 m 257
 532.285 322.717 472.981 339.194 404.87 339.194 c 256
 351.831 339.194 300.572 329.308 251.094 309.536 c 257
 224.906 374.464 l 257
 283.15 397.624 342.904 409.204 404.168 409.204 c 256
 485.404 409.204 555.258 389.898 622.24 355.012 c 257
 589.76 292.988 l 257
947.926 505.975 m 257
 933.801 536.399 904.64 563.454 862.788 563.454 c 256
 803.29 563.454 774.164 520.328 747.525 479.193 c 258
 575.598 207.308 l 258
 522.32 123.685 459 -5 331.995 -6.99733 c 256
 232 -8 183.674 92.6484 183.674 201.742 c 256
 183.674 276.769 194.945 332.153 214.119 406.781 c 256
 215.271 411.389 216.092 415.168 216.582 418.117 c 256
 216.302 433.536 184.527 429.047 163.947 429.007 c 258
 62 429.007 l 257
 62 498.993 l 257
 164.053 498.993 l 258
 205.529 498.91 235.494 496.048 256 482.097 c 256
 269.068 473.207 278.295 459.812 284.21 439.763 c 256
 288.334 421.015 286.125 405.825 281.881 389.219 c 256
 263.942 319.127 253.66 269.346 253.66 201.218 c 256
 253.66 142.481 266.98 96.8367 299.751 73.1087 c 256
 310.486 66.789 321.239 63.4193 332.009 62.9994 c 256
 365.637 64.7664 386.524 84.3516 407.174 104.671 c 256
 445.097 143.116 481.506 189.79 516.402 244.692 c 256
 573.784 335.434 631.164 426.178 688.547 516.919 c 256
 712.954 554.471 731.175 579.787 761.276 601.221 c 256
 792.947 622.749 826.469 633.514 861.841 633.514 c 256
 936.569 633.514 988.344 587.342 1012.07 534.025 c 257
 947.926 505.975 l 257
EndSplineSet
EndChar

StartChar: uni170C
Encoding: 16 5900 16
GlifName: uni170C_
Width: 1029
VWidth: 0
GlyphClass: 2
Flags: MW
AnchorPoint: "Anchor1" 583 0 basechar 0
AnchorPoint: "Anchor0" 520 693 basechar 0
AnchorPoint: "Anchor-1" 583 0 basechar 0
AnchorPoint: "Anchor-0" 520 693 basechar 0
LayerCount: 2
Fore
SplineSet
821.799 437.725 m 257
 841.233 428.964 859.889 423.117 885.461 423.117 c 256
 933.18 423.117 978.343 448.667 978.343 496.254 c 256
 978.343 536.649 943.893 565.738 902.921 565.738 c 256
 844.708 565.738 816.581 522.932 790.837 481.692 c 258
 678.911 297.812 l 258
 622.146 204.848 582.663 145.389 518.611 81.0657 c 256
 474.857 37.7703 422.334 -5.08988 349.989 -5.08988 c 256
 291.795 -5.08988 247.8 29.8154 226.276 69.221 c 256
 211.588 96.8491 204.244 129.931 204.244 168.467 c 256
 204.244 206.669 222.245 313.185 226.416 353.356 c 258
 228.371 372.187 l 257
 57 371.007 l 257
 57 440.993 l 257
 179 440.993 l 258
 208.766 441.087 237.889 441.228 256.537 431.735 c 256
 282.488 417.715 299.037 396.019 299.037 361.357 c 256
 299.037 308.982 274.252 210.971 274.252 169.057 c 256
 274.252 113.137 295.974 64.9135 349.12 64.9135 c 256
 428.736 64.9135 484.227 142.762 524.115 193.399 c 256
 591.67 280.361 669.164 416.459 731.235 518.425 c 256
 769.019 578.725 815.896 635.822 902.01 635.822 c 256
 983.029 635.822 1048.58 575.879 1048.58 497.218 c 256
 1048.58 406.993 974.17 353.048 885.616 353.048 c 256
 848.519 353.048 819.199 361.846 792.201 374.275 c 257
 821.799 437.725 l 257
EndSplineSet
EndChar

StartChar: uni170E
Encoding: 17 5902 17
GlifName: uni170E_
Width: 913
VWidth: 0
GlyphClass: 2
Flags: HMW
AnchorPoint: "Anchor1" 507 -49 basechar 0
AnchorPoint: "Anchor0" 488 693 basechar 0
AnchorPoint: "Anchor-1" 507 -49 basechar 0
AnchorPoint: "Anchor-0" 488 693 basechar 0
LayerCount: 2
Fore
SplineSet
469.03 300.715 m 257
 427.304697558 323.304802641 395.482072975 361.641901515 395.482072975 422.139247621 c 0
 395.482072975 436.144679048 397.392795901 450.103929841 401.214 464.017 c 257
 335.509928925 435.316390693 277.214473444 420.966991282 226.32944404 420.966991282 c 0
 142.870744762 420.966991282 74.5660993311 454.473414599 24.4223 508.109 c 257
 75.5777 555.891 l 257
 112.965777185 515.915254699 164.538961225 490.962035438 225.695541139 490.962035438 c 0
 278.250183764 490.962035438 342.918670051 510.840040396 419.701 550.597 c 256
 496.578 590.531 552.243 615.797 586.694 626.394 c 256
 620.879724008 636.458574856 655.683908512 643.187543083 696.280716774 643.187543083 c 0
 763.345059429 643.187543083 826.957236409 622.098686821 880.236 584.563 c 257
 841.277 526.422 l 257
 796.099268252 554.598682514 750.761341151 569.62554896 692.18728801 569.62554896 c 0
 605.726036438 569.62554896 517.68080278 531.721141398 479.713 470.97 c 256
 470.189053596 453.755826972 465.426584693 437.29827915 465.426584693 421.597356534 c 0
 465.426584693 389.386904583 483.349689648 371.133476952 505.29 360.957 c 256
 529.776410622 349.901568338 548.841958091 336.418324544 548.841958091 302.978044472 c 0
 548.841958091 259.215910556 507.726506344 242.351927944 480.034 224.55 c 257
 518.551044205 207.587581478 568.329 192 568.329 148.194 c 256
 568.329 110.217192907 538.670497381 87.0453844547 511.775 69.114 c 256
 481.266968558 47.4184751563 455.989863498 20.7862599444 436.884 -10.232 c 257
 377.099 26.2043 l 257
 408.522050255 76.9206840727 453 116 494.304 141.758 c 261
 454.985407472 159.076365425 400.484 175.421493904 400.484 224.535 c 256
 400.484 267 440.250011423 282.15358859 469.03 300.715 c 257
EndSplineSet
EndChar

StartChar: uni170F
Encoding: 18 5903 18
GlifName: uni170F_
Width: 761
VWidth: 0
GlyphClass: 2
Flags: HMW
AnchorPoint: "Anchor1" 457 -30 basechar 0
AnchorPoint: "Anchor0" 537 742 basechar 0
AnchorPoint: "Anchor-1" 457 -30 basechar 0
AnchorPoint: "Anchor-0" 537 742 basechar 0
LayerCount: 2
Fore
SplineSet
324.47 584.832 m 257
 372.225655356 640.210919602 438.10592572 679.408971167 519.230565782 679.408971167 c 0
 652.181341492 679.408971167 722.248267108 581.506804629 708.814 440.447 c 256
 701.726 373.149 681.204 305.739 647.247 238.217 c 256
 593.385346929 133.793225484 501.23011921 -6.87475310292 352.453760223 -6.87475310292 c 0
 253.03378422 -6.87475310292 194.307132149 67.2408833678 194.307132149 166.553388523 c 4
 194.307132149 245 227.862743678 301.383025913 227.862743678 359.830995307 c 0
 227.862743678 374.359791477 203.247555664 372.822582311 185.872 373.007 c 258
 58 373.007 l 257
 58 442.993 l 257
 186.252 442.992 l 258
 250.584016275 442.231020736 297.772651265 421.038002408 297.772651265 359.601689186 c 0
 297.772651265 350.012213553 296.567310472 339.600421972 294.156 328.366 c 258
 282.171 274.434 l 258
 270.225647749 219.939099942 264.333346641 195.875520037 264.333346641 167.116515897 c 0
 264.333346641 106.674801247 293.582070985 63.1839478961 352.230516022 63.1839478961 c 0
 467.178620744 63.1839478961 543.304278418 189.134406161 584.753 269.783 c 256
 615 330.214 633.139 389.418 639.17 447.395 c 256
 647.394155564 542.967725561 610.626953125 607.471679688 519.311523438 607.471679688 c 0
 460.010742188 607.471679688 411.840186041 578.977439182 377.488 539.12 c 257
 324.47 584.832 l 257
EndSplineSet
EndChar

StartChar: uni1710
Encoding: 19 5904 19
GlifName: uni1710
Width: 922
VWidth: 0
GlyphClass: 2
Flags: MW
AnchorPoint: "Anchor1" 609 -79 basechar 0
AnchorPoint: "Anchor0" 488 693 basechar 0
AnchorPoint: "Anchor-1" 609 -79 basechar 0
AnchorPoint: "Anchor-0" 488 693 basechar 0
LayerCount: 2
Fore
SplineSet
235.662 -9.18021 m 257
 177.007 -9.18021 l 257
 177.007 565.007 l 257
 20 565.007 l 257
 20 634.993 l 257
 246.993 634.993 l 257
 246.993 152.094 l 257
 401.582 423.328 l 258
 442.615 494.956 473.242 539.784 510.702 573.563 c 256
 552.827 610.298 600.503 638.772 669.623 638.772 c 256
 768.638 638.772 849.022 565.245 849.022 470.851 c 256
 849.022 408.318 817.609 361.23 779.125 335.173 c 257
 829.901 306.488 875.028 254.56 875.028 181.173 c 256
 875.028 94.4675 808.964 36.5084 740.504 11.6296 c 256
 700.358 -2.20209 639.475 -9 560.115 -9 c 258
 516 -9 l 257
 516 60.9931 l 257
 560.831 60.9718 l 258
 655.757 60.9718 805.037 74.7449 805.037 180.077 c 256
 805.037 279.565 711.362 296.812 598 297.007 c 258
 588 297.007 l 257
 586.645 366.967 l 257
 638.645 368.967 l 258
 716.885 372.222 779.062 391.644 779.062 470.208 c 256
 779.062 526.798 727.498 568.726 669.572 568.726 c 256
 616.952 568.726 579.568 543.543 549.857 514.279 c 256
 524.957 488.967 495.81 447.098 462.418 388.672 c 258
 235.662 -9.18021 l 257
EndSplineSet
EndChar

StartChar: uni1711
Encoding: 20 5905 20
GlifName: uni1711
Width: 1049
VWidth: 0
GlyphClass: 2
Flags: HMW
AnchorPoint: "Anchor1" 507 0 basechar 0
AnchorPoint: "Anchor0" 532 693 basechar 0
AnchorPoint: "Anchor-1" 507 0 basechar 0
AnchorPoint: "Anchor-0" 532 693 basechar 0
LayerCount: 2
Fore
SplineSet
47.0049 326.612 m 257
 92.9951 379.388 l 257
 218.647377652 271.196337641 343.290317587 301.5677924 523.999996075 348.049468386 c 0
 730.591747299 401.18846416 866.15815361 423.3412738 1002.36 292.129 c 257
 953.652 241.857 l 257
 833.351731704 356.886775895 709.264775026 326.630557137 526.000003908 279.190736181 c 4
 324.826436152 227.115053675 187.670975679 204.512635877 47.0049 326.612 c 257
EndSplineSet
EndChar

StartChar: uni1712
Encoding: 21 5906 21
GlifName: uni1712
Width: 0
VWidth: 0
GlyphClass: 4
Flags: HMWO
AnchorPoint: "Mkmk" -295 780 mark 0
AnchorPoint: "Mkmk" -37 780 basemark 0
AnchorPoint: "Anchor0" -171 693 mark 0
AnchorPoint: "Anchor-0" -171 693 mark 0
LayerCount: 2
Fore
SplineSet
-242.26 776 m 256
 -242.26 816.59 -209.59 849.26 -169 849.26 c 256
 -128.41 849.26 -95.7402 816.59 -95.7402 776 c 256
 -95.7402 735.41 -128.41 702.74 -169 702.74 c 256
 -209.59 702.74 -242.26 735.41 -242.26 776 c 256
EndSplineSet
EndChar

StartChar: uni1713
Encoding: 22 5907 22
GlifName: uni1713
Width: 0
VWidth: 0
GlyphClass: 4
Flags: HMW
AnchorPoint: "Mkmk" 15 -100 basemark 0
AnchorPoint: "Mkmk" -223 -100 mark 0
AnchorPoint: "Anchor1" -98 0 mark 0
AnchorPoint: "Anchor-1" -98 0 mark 0
LayerCount: 2
Fore
SplineSet
-171.26 -99.2598 m 256
 -171.26 -58.6699 -138.59 -26 -98 -26 c 256
 -57.4102 -26 -24.7402 -58.6699 -24.7402 -99.2598 c 256
 -24.7402 -139.85 -57.4102 -172.52 -98 -172.52 c 256
 -138.59 -172.52 -171.26 -139.85 -171.26 -99.2598 c 256
EndSplineSet
EndChar

StartChar: uni1714
Encoding: 23 5908 23
GlifName: uni1714
Width: 0
VWidth: 0
GlyphClass: 4
Flags: MW
AnchorPoint: "Anchor1" -124 0 mark 0
AnchorPoint: "Anchor-1" -124 0 mark 0
LayerCount: 2
Fore
SplineSet
-152.53 -183.124 m 257
 -152.53 -124.875 l 257
 -211.968 -124.875 l 257
 -211.968 -65.4375 l 257
 -152.53 -65.4375 l 257
 -152.53 -6 l 257
 -93.0928 -6 l 257
 -93.0928 -65.4375 l 257
 -34.8438 -65.4375 l 257
 -34.8438 -124.875 l 257
 -93.0928 -124.875 l 257
 -93.0928 -183.124 l 257
 -152.53 -183.124 l 257
EndSplineSet
EndChar

StartChar: uni1735
Encoding: 24 5941 24
GlifName: uni1735
Width: 329
VWidth: 0
GlyphClass: 2
Flags: MW
LayerCount: 2
Fore
SplineSet
88.1175 -145.805 m 257
 19.8634 -130.279 l 257
 221.882 757.805 l 257
 290.137 742.279 l 257
 88.1175 -145.805 l 257
EndSplineSet
EndChar

StartChar: uni1736
Encoding: 25 5942 25
GlifName: uni1736
Width: 488
VWidth: 0
GlyphClass: 2
Flags: MW
LayerCount: 2
Fore
SplineSet
248.118 -145.805 m 257
 179.863 -130.279 l 257
 381.882 757.805 l 257
 450.137 742.279 l 257
 248.118 -145.805 l 257
88.1175 -145.805 m 257
 19.8634 -130.279 l 257
 221.882 757.805 l 257
 290.137 742.279 l 257
 88.1175 -145.805 l 257
EndSplineSet
EndChar

StartChar: uni25CC
Encoding: 29 9676 29
GlifName: uni25C_C_
Width: 594
VWidth: 0
GlyphClass: 2
Flags: MW
AnchorPoint: "Anchor1" 295 0 basechar 0
AnchorPoint: "Anchor0" 300 590 basechar 0
AnchorPoint: "Anchor-1" 295 0 basechar 0
AnchorPoint: "Anchor-0" 300 590 basechar 0
LayerCount: 2
Fore
SplineSet
323 514 m 256
 323 496 314.333 487 297 487 c 256
 279.667 487 271 496 271 514 c 256
 271 531.333 279.667 540 297 540 c 256
 314.333 540 323 531.333 323 514 c 256
408 496 m 256
 408 478.667 399.667 470 383 470 c 256
 364.333 470 355 478.667 355 496 c 256
 355 514 364.333 523 383 523 c 256
 399.667 523 408 514 408 496 c 256
239 496 m 256
 239 478.667 230 470 212 470 c 256
 194.667 470 186 478.667 186 496 c 256
 186 514 194.667 523 212 523 c 256
 230 523 239 514 239 496 c 256
480 448 m 256
 480 430.667 471.667 422 455 422 c 256
 437 422 428 430.667 428 448 c 256
 428 466 437 475 455 475 c 256
 471.667 475 480 466 480 448 c 256
167 448 m 256
 167 430.667 158 422 140 422 c 256
 122.667 422 114 430.333 114 447 c 256
 114 465.667 122.667 475 140 475 c 256
 158 475 167 466 167 448 c 256
529 376 m 256
 529 358 520 349 502 349 c 256
 484.667 349 476 358 476 376 c 256
 476 393.333 485 402 503 402 c 256
 520.333 402 529 393.333 529 376 c 256
118 376 m 256
 118 358 109.667 349 93 349 c 256
 74.3333 349 65 358 65 376 c 256
 65 393.333 74 402 92 402 c 256
 109.333 402 118 393.333 118 376 c 256
546 291 m 256
 546 273.667 537.667 265 521 265 c 256
 503 265 494 273.667 494 291 c 256
 494 308.333 503 317 521 317 c 256
 537.667 317 546 308.333 546 291 c 256
101 291 m 256
 101 273.667 92.3333 265 75 265 c 256
 57 265 48 273.667 48 291 c 256
 48 308.333 57 317 75 317 c 256
 92.3333 317 101 308.333 101 291 c 256
529 206 m 256
 529 188.667 520 180 502 180 c 256
 484.667 180 476 188.667 476 206 c 256
 476 224 484.667 233 502 233 c 256
 520 233 529 224 529 206 c 256
118 206 m 256
 118 188.667 109.333 180 92 180 c 256
 74 180 65 188.667 65 206 c 256
 65 224 74 233 92 233 c 256
 109.333 233 118 224 118 206 c 256
480 133 m 256
 480 115.667 471.667 107 455 107 c 256
 437 107 428 115.667 428 133 c 256
 428 151 437 160 455 160 c 256
 471.667 160 480 151 480 133 c 256
167 133 m 256
 167 115.667 158 107 140 107 c 256
 122.667 107 114 115.667 114 133 c 256
 114 151 122.667 160 140 160 c 256
 158 160 167 151 167 133 c 256
408 85 m 256
 408 68.3333 399.667 60 383 60 c 256
 364.333 60 355 68.3333 355 85 c 256
 355 103 364.333 112 383 112 c 256
 399.667 112 408 103 408 85 c 256
239 87 m 256
 239 69 230 60 212 60 c 256
 194.667 60 186 68.3333 186 85 c 256
 186 103 194.667 112 212 112 c 256
 230 112 239 103.667 239 87 c 256
323 69 m 256
 323 51 314.333 42 297 42 c 256
 279.667 42 271 51 271 69 c 256
 271 86.3333 279.667 95 297 95 c 256
 314.333 95 323 86.3333 323 69 c 256
EndSplineSet
EndChar

StartChar: uni170D
Encoding: 31 5901 31
GlifName: uni170D_
Width: 1048
VWidth: 0
GlyphClass: 2
Flags: MW
AnchorPoint: "Anchor1" 482 0 basechar 0
AnchorPoint: "Anchor0" 527 693 basechar 0
AnchorPoint: "Anchor-1" 482 0 basechar 0
AnchorPoint: "Anchor-0" 527 693 basechar 0
LayerCount: 2
Fore
SplineSet
218.251 483.749 m 257
 267.749 434.251 l 257
 251.86 418.363 l 258
 204.544 370.371 166.897 339.478 166.897 270 c 256
 166.897 193.422 232.641 144.971 310.257 144.971 c 256
 408 144.971 634.055 232.99 730.517 232.99 c 256
 828 232.99 925.125 201.493 999.598 138.729 c 257
 954.402 85.2709 l 257
 890.125 139.273 819.587 164.33 747 164.33 c 256
 615 164.33 438.014 75.0293 307.743 75.0293 c 256
 195.348 75.0293 96.0845 146 96.0845 255.662 c 256
 96.0845 354.843 141.09 405.893 202.14 467.637 c 258
 218.251 483.749 l 257
48.3087 513.35 m 257
 93.6913 566.65 l 257
 153.038 516.023 223.45 492.986 308.296 492.986 c 256
 423 492.986 624.327 578.222 730.033 580.98 c 256
 835.071 583.72 927.571 549.661 1000.1 486.3 c 257
 953.905 433.7 l 257
 894.201 485.483 818.234 513.498 731.967 511.02 c 256
 624.03 507.92 468 423.012 309.591 423.012 c 256
 202 423.012 120.547 452.072 48.3087 513.35 c 257
694.637 207.342 m 257
 759.384 180.709 l 257
 741.84 138.549 719.771 99.389 693.175 63.2289 c 256
 662.402 21.9775 626.392 -14.7581 586.323 -45.7588 c 257
 543.62 9.71487 l 257
 579.046 37.2895 610.478 69.3131 636.825 104.771 c 256
 660.381 136.972 679.652 171.162 694.637 207.342 c 257
EndSplineSet
EndChar

StartChar: uni1734
Encoding: 32 5940 32
GlifName: uni1734
Width: 134
VWidth: 0
GlyphClass: 2
Flags: MW
LayerCount: 2
Fore
SplineSet
33.0069 264 m 257
 102.993 264 l 257
 102.993 32 l 258
 102.993 -110.636 89.3829 -191.879 21.0004 -261.011 c 256
 -34.2555 -315.246 -91.7873 -334.953 -204 -334.993 c 258
 -296 -334.993 l 257
 -296 -265.007 l 257
 -204 -265.007 l 258
 -100.64 -264.581 -51.3336 -247.232 -10.202 -189.791 c 256
 29.3609 -132.369 33.0069 -73.4357 33.0069 32 c 258
 33.0069 264 l 257
EndSplineSet
EndChar

StartChar: uni1712.hollow
Encoding: 33 -1 33
GlifName: uni1712.hollow
Width: 0
VWidth: 0
GlyphClass: 4
Flags: HMW
AnchorPoint: "Mkmk" -37 780 basemark 0
AnchorPoint: "Mkmk" -295 780 mark 0
AnchorPoint: "Anchor0" -171 693 mark 0
AnchorPoint: "Anchor-0" -171 693 mark 0
LayerCount: 2
Fore
SplineSet
-216.619 776 m 256
 -216.619 749.616 -195.384 728.381 -169 728.381 c 256
 -142.616 728.381 -121.381 749.616 -121.381 776 c 256
 -121.381 802.384 -142.616 823.619 -169 823.619 c 256
 -195.384 823.619 -216.619 802.384 -216.619 776 c 256
-242.26 776 m 256
 -242.26 816.59 -209.59 849.26 -169 849.26 c 256
 -128.41 849.26 -95.7402 816.59 -95.7402 776 c 256
 -95.7402 735.41 -128.41 702.74 -169 702.74 c 256
 -209.59 702.74 -242.26 735.41 -242.26 776 c 256
EndSplineSet
EndChar

StartChar: uni1713.hollow
Encoding: 34 -1 34
GlifName: uni1713.hollow
Width: 0
VWidth: 0
GlyphClass: 4
Flags: HMW
AnchorPoint: "Mkmk" 15 -70 basemark 0
AnchorPoint: "Mkmk" -223 -70 mark 0
AnchorPoint: "Anchor1" -98 30 mark 0
AnchorPoint: "Anchor-1" -98 30 mark 0
LayerCount: 2
Fore
SplineSet
-145.261 -62.9297 m 256
 -145.261 -89.3135 -124.025 -110.549 -97.6416 -110.549 c 256
 -71.2578 -110.549 -50.0225 -89.3135 -50.0225 -62.9297 c 256
 -50.0225 -36.5459 -71.2578 -15.3105 -97.6416 -15.3105 c 256
 -124.025 -15.3105 -145.261 -36.5459 -145.261 -62.9297 c 256
-170.901 -62.9297 m 256
 -170.901 -22.3398 -138.231 10.3301 -97.6416 10.3301 c 256
 -57.0518 10.3301 -24.3818 -22.3398 -24.3818 -62.9297 c 256
 -24.3818 -103.52 -57.0518 -136.189 -97.6416 -136.189 c 256
 -138.231 -136.189 -170.901 -103.52 -170.901 -62.9297 c 256
EndSplineSet
EndChar

StartChar: uni171F
Encoding: 35 5919 35
GlifName: uni171F_
Width: 809
VWidth: 0
GlyphClass: 2
Flags: HMW
AnchorPoint: "Anchor-1" 154 -105 basechar 0
AnchorPoint: "Anchor-0" 601 882 basechar 0
AnchorPoint: "Anchor0" 601 882 basechar 0
AnchorPoint: "Anchor1" 154 -105 basechar 0
LayerCount: 2
Fore
SplineSet
87.708 115.111 m 257
 91.7667 83.8888 123.912 53.9559 150.732 53.9559 c 256
 192.113 53.9559 209.08 77.9406 224.537 128.358 c 258
 329.536 470.855 l 258
 364.853 586.091 415.951 788.103 587.746 788.103 c 256
 681.964 788.103 768.204 721.62 768.204 614.998 c 256
 768.204 539.423 732.028 482.232 673.479 452.705 c 257
 709.074 422.242 730.341 380.941 730.341 331.52 c 256
 730.341 257.523 681.171 212.509 626.745 190.936 c 257
 676.885 155.55 711.879 101.449 711.879 31.8345 c 256
 711.879 -80.7614 610.374 -148.636 504.765 -148.636 c 256
 449.306 -148.636 395.446 -133.464 344.808 -104.34 c 257
 379.708 -43.6603 l 257
 420.955 -67.3839 462.1 -78.6361 504.765 -78.6361 c 256
 585.024 -78.6361 641.879 -30.9492 641.879 31.8345 c 256
 641.879 113.489 562.717 167 476 167 c 257
 475.902 237 l 257
 581.898 237.297 658.633 264.111 660.341 331.52 c 256
 662 397 613.322 427 550 427 c 257
 550 497 l 257
 640.711262325 497 698.204 530.889609493 698.204 614.998 c 256
 698.204 678.378 650.561 718.103 587.746 718.103 c 256
 483.135 718.103 437.048 582.765 396.464 450.344 c 258
 291.463 107.841 l 258
 274.111 51.2457 237.494 -16.0441 150.732 -16.0441 c 256
 81.6803 -16.0441 26.4298 43.4861 18.292 106.088 c 257
 87.708 115.111 l 257
EndSplineSet
EndChar

StartChar: uni170C.avar
Encoding: 37 -1 37
GlifName: uni170C_.avar
Width: 1029
VWidth: 0
GlyphClass: 2
Flags: MW
AnchorPoint: "Anchor1" 583 0 basechar 0
AnchorPoint: "Anchor0" 520 693 basechar 0
AnchorPoint: "Anchor-1" 583 0 basechar 0
AnchorPoint: "Anchor-0" 520 693 basechar 0
LayerCount: 2
Fore
SplineSet
885.461 423.117 m 256
 933.18 423.117 978.343 448.667 978.343 496.254 c 256
 978.343 536.649 943.893 565.738 902.921 565.738 c 256
 844.708 565.738 816.581 522.932 790.837 481.692 c 258
 678.911 297.812 l 258
 622.146 204.848 582.663 145.389 518.611 81.0657 c 256
 474.857 37.7703 422.334 -5.08988 349.989 -5.08988 c 256
 291.795 -5.08988 247.8 29.8154 226.276 69.221 c 256
 211.588 96.8491 204.244 129.931 204.244 168.467 c 256
 204.244 206.669 222.245 313.185 226.416 353.356 c 258
 228.371 372.187 l 257
 57 371.007 l 257
 57 440.993 l 257
 179 440.993 l 258
 208.766 441.087 237.889 441.228 256.537 431.735 c 256
 282.488 417.715 299.037 396.019 299.037 361.357 c 256
 299.037 308.982 274.252 210.971 274.252 169.057 c 256
 274.252 113.137 295.974 64.9135 349.12 64.9135 c 256
 428.736 64.9135 484.227 142.762 524.115 193.399 c 256
 591.67 280.361 669.164 416.459 731.235 518.425 c 256
 769.019 578.725 815.896 635.822 902.01 635.822 c 256
 983.029 635.822 1048.58 575.879 1048.58 497.218 c 256
 1048.58 406.993 974.17 353.048 885.616 353.048 c 256
 806.394 353.048 753.36 393.541 698 421 c 257
 744 475 l 257
 785.593 455.072 827.922 423.117 885.461 423.117 c 256
EndSplineSet
EndChar

StartChar: uni170D.avar
Encoding: 38 -1 38
GlifName: uni170D_.avar
Width: 1048
VWidth: 0
GlyphClass: 2
Flags: MW
AnchorPoint: "Anchor1" 482 0 basechar 0
AnchorPoint: "Anchor0" 527 693 basechar 0
AnchorPoint: "Anchor-1" 482 0 basechar 0
AnchorPoint: "Anchor-0" 527 693 basechar 0
LayerCount: 2
Fore
SplineSet
218.251 483.749 m 257
 267.749 434.251 l 257
 251.86 418.363 l 258
 204.544 370.371 166.897 339.478 166.897 270 c 256
 166.897 193.422 232.641 144.971 310.257 144.971 c 256
 408 144.971 634.055 232.99 730.517 232.99 c 256
 828 232.99 925.125 201.493 999.598 138.729 c 257
 954.402 85.2709 l 257
 890.125 139.273 819.587 164.33 747 164.33 c 256
 615 164.33 438.014 75.0293 307.743 75.0293 c 256
 195.348 75.0293 96.0845 146 96.0845 255.662 c 256
 96.0845 354.843 141.09 405.893 202.14 467.637 c 258
 218.251 483.749 l 257
48.3087 513.35 m 257
 93.6913 566.65 l 257
 153.038 516.023 223.45 492.986 308.296 492.986 c 256
 423 492.986 624.327 578.222 730.033 580.98 c 256
 835.071 583.72 927.571 549.661 1000.1 486.3 c 257
 953.905 433.7 l 257
 894.201 485.483 818.234 513.498 731.967 511.02 c 256
 624.03 507.92 468 423.012 309.591 423.012 c 256
 202 423.012 120.547 452.072 48.3087 513.35 c 257
730.253 322.634 m 257
 795 296 l 257
 777.456 253.84 735.081 180.558 702.175 125.229 c 256
 676.133 81.4414 608.392 7.24219 568.323 -23.7588 c 257
 525.619 31.7148 l 257
 561.046 59.2891 624.31 130.023 648.825 166.771 c 256
 683 218 715.269 286.453 730.253 322.634 c 257
EndSplineSet
EndChar

StartChar: _ra_tail
Encoding: 39 -1 39
GlifName: _ra_tail
Width: 1048
VWidth: 0
GlyphClass: 2
Flags: MW
LayerCount: 2
Fore
SplineSet
694.637 207.342 m 257
 759.384 180.709 l 257
 741.84 138.549 719.771 99.389 693.175 63.2289 c 256
 662.402 21.9775 626.392 -14.7581 586.323 -45.7588 c 257
 543.62 9.71487 l 257
 579.046 37.2895 610.478 69.3131 636.825 104.771 c 256
 660.381 136.972 679.652 171.162 694.637 207.342 c 257
EndSplineSet
EndChar

StartChar: uni1714.salt
Encoding: 40 -1 40
GlifName: uni1714.salt
Width: 0
VWidth: 0
GlyphClass: 4
Flags: HMW
AnchorPoint: "Anchor1" -124 0 mark 0
AnchorPoint: "Anchor-1" -124 0 mark 0
LayerCount: 2
Fore
SplineSet
-206.5 -136.888 m 261
 -164.471 -94.8594 l 257
 -206.5 -52.8301 l 257
 -164.471 -10.8018 l 257
 -122.442 -52.8301 l 257
 -81.2539 -11.6416 l 257
 -39.2256 -53.6709 l 257
 -80.4141 -94.8594 l 257
 -39.2256 -136.047 l 257
 -81.2539 -178.076 l 257
 -122.442 -136.888 l 257
 -164.471 -178.916 l 257
 -206.5 -136.888 l 261
EndSplineSet
EndChar

StartChar: pahantig
Encoding: 41 -1 41
GlifName: pahantig
Width: 222
VWidth: 0
GlyphClass: 2
Flags: HMW
LayerCount: 2
Back
Refer: 22 5907 N 1 0 0 1 210 413 2
Fore
SplineSet
38.740234375 313.740234375 m 256
 38.740234375 354.330078125 71.41015625 387 112 387 c 256
 152.58984375 387 185.259765625 354.330078125 185.259765625 313.740234375 c 256
 185.259765625 273.150390625 152.58984375 240.48046875 112 240.48046875 c 256
 71.41015625 240.48046875 38.740234375 273.150390625 38.740234375 313.740234375 c 256
EndSplineSet
EndChar

StartChar: pahantig_hollow
Encoding: 42 -1 42
GlifName: pahantig_hollow
Width: 222
VWidth: 0
GlyphClass: 2
Flags: HMW
LayerCount: 2
Back
Refer: 34 -1 N 1 0 0 1 210 377 2
Fore
SplineSet
64.7392578125 314.0703125 m 256
 64.7392578125 287.686523438 85.974609375 266.451171875 112.358398438 266.451171875 c 256
 138.7421875 266.451171875 159.977539062 287.686523438 159.977539062 314.0703125 c 256
 159.977539062 340.454101562 138.7421875 361.689453125 112.358398438 361.689453125 c 256
 85.974609375 361.689453125 64.7392578125 340.454101562 64.7392578125 314.0703125 c 256
39.0986328125 314.0703125 m 256
 39.0986328125 354.66015625 71.7685546875 387.330078125 112.358398438 387.330078125 c 256
 152.948242188 387.330078125 185.618164062 354.66015625 185.618164062 314.0703125 c 256
 185.618164062 273.48046875 152.948242188 240.810546875 112.358398438 240.810546875 c 256
 71.7685546875 240.810546875 39.0986328125 273.48046875 39.0986328125 314.0703125 c 256
EndSplineSet
EndChar

StartChar: padalawa
Encoding: 43 -1 43
GlifName: padalawa
Width: 222
VWidth: 0
GlyphClass: 2
Flags: HMW
LayerCount: 2
Back
Refer: 22 5907 N 1 0 0 1 210 303 2
Refer: 22 5907 N 1 0 0 1 210 504 2
Fore
SplineSet
38.740234375 404.740234375 m 256
 38.740234375 445.330078125 71.41015625 478 112 478 c 256
 152.58984375 478 185.259765625 445.330078125 185.259765625 404.740234375 c 256
 185.259765625 364.150390625 152.58984375 331.48046875 112 331.48046875 c 256
 71.41015625 331.48046875 38.740234375 364.150390625 38.740234375 404.740234375 c 256
38.740234375 203.740234375 m 256
 38.740234375 244.330078125 71.41015625 277 112 277 c 256
 152.58984375 277 185.259765625 244.330078125 185.259765625 203.740234375 c 256
 185.259765625 163.150390625 152.58984375 130.48046875 112 130.48046875 c 256
 71.41015625 130.48046875 38.740234375 163.150390625 38.740234375 203.740234375 c 256
EndSplineSet
EndChar

StartChar: padalawa_hollow
Encoding: 44 -1 44
GlifName: padalawa_hollow
Width: 222
VWidth: 0
GlyphClass: 2
Flags: HMW
LayerCount: 2
Back
Refer: 22 5907 N 1 0 0 1 210 303 2
Refer: 34 -1 N 1 0 0 1 210 467 2
Fore
SplineSet
64.7392578125 404.0703125 m 256
 64.7392578125 377.686523438 85.974609375 356.451171875 112.358398438 356.451171875 c 256
 138.7421875 356.451171875 159.977539062 377.686523438 159.977539062 404.0703125 c 256
 159.977539062 430.454101562 138.7421875 451.689453125 112.358398438 451.689453125 c 256
 85.974609375 451.689453125 64.7392578125 430.454101562 64.7392578125 404.0703125 c 256
39.0986328125 404.0703125 m 256
 39.0986328125 444.66015625 71.7685546875 477.330078125 112.358398438 477.330078125 c 256
 152.948242188 477.330078125 185.618164062 444.66015625 185.618164062 404.0703125 c 256
 185.618164062 363.48046875 152.948242188 330.810546875 112.358398438 330.810546875 c 256
 71.7685546875 330.810546875 39.0986328125 363.48046875 39.0986328125 404.0703125 c 256
38.740234375 203.740234375 m 256
 38.740234375 244.330078125 71.41015625 277 112 277 c 256
 152.58984375 277 185.259765625 244.330078125 185.259765625 203.740234375 c 256
 185.259765625 163.150390625 152.58984375 130.48046875 112 130.48046875 c 256
 71.41015625 130.48046875 38.740234375 163.150390625 38.740234375 203.740234375 c 256
EndSplineSet
EndChar

StartChar: padalawa_hollow2
Encoding: 45 -1 45
GlifName: padalawa_hollow2
Width: 222
VWidth: 0
GlyphClass: 2
Flags: HMW
LayerCount: 2
Back
Refer: 22 5907 N 1 0 0 1 210 504 2
Refer: 34 -1 N 1 0 0 1 210 267 2
Fore
SplineSet
64.7392578125 204.0703125 m 256
 64.7392578125 177.686523438 85.974609375 156.451171875 112.358398438 156.451171875 c 256
 138.7421875 156.451171875 159.977539062 177.686523438 159.977539062 204.0703125 c 256
 159.977539062 230.454101562 138.7421875 251.689453125 112.358398438 251.689453125 c 256
 85.974609375 251.689453125 64.7392578125 230.454101562 64.7392578125 204.0703125 c 256
39.0986328125 204.0703125 m 256
 39.0986328125 244.66015625 71.7685546875 277.330078125 112.358398438 277.330078125 c 256
 152.948242188 277.330078125 185.618164062 244.66015625 185.618164062 204.0703125 c 256
 185.618164062 163.48046875 152.948242188 130.810546875 112.358398438 130.810546875 c 256
 71.7685546875 130.810546875 39.0986328125 163.48046875 39.0986328125 204.0703125 c 256
38.740234375 404.740234375 m 256
 38.740234375 445.330078125 71.41015625 478 112 478 c 256
 152.58984375 478 185.259765625 445.330078125 185.259765625 404.740234375 c 256
 185.259765625 364.150390625 152.58984375 331.48046875 112 331.48046875 c 256
 71.41015625 331.48046875 38.740234375 364.150390625 38.740234375 404.740234375 c 256
EndSplineSet
EndChar

StartChar: padalawa_hollow_hollow
Encoding: 46 -1 46
GlifName: padalawa_hollow_hollow
Width: 222
VWidth: 0
GlyphClass: 2
Flags: HMW
LayerCount: 2
Back
Refer: 34 -1 N 1 0 0 1 210 267 2
Refer: 34 -1 N 1 0 0 1 210 467 2
Fore
SplineSet
64.7392578125 404.0703125 m 256
 64.7392578125 377.686523438 85.974609375 356.451171875 112.358398438 356.451171875 c 256
 138.7421875 356.451171875 159.977539062 377.686523438 159.977539062 404.0703125 c 256
 159.977539062 430.454101562 138.7421875 451.689453125 112.358398438 451.689453125 c 256
 85.974609375 451.689453125 64.7392578125 430.454101562 64.7392578125 404.0703125 c 256
39.0986328125 404.0703125 m 256
 39.0986328125 444.66015625 71.7685546875 477.330078125 112.358398438 477.330078125 c 256
 152.948242188 477.330078125 185.618164062 444.66015625 185.618164062 404.0703125 c 256
 185.618164062 363.48046875 152.948242188 330.810546875 112.358398438 330.810546875 c 256
 71.7685546875 330.810546875 39.0986328125 363.48046875 39.0986328125 404.0703125 c 256
64.7392578125 204.0703125 m 256
 64.7392578125 177.686523438 85.974609375 156.451171875 112.358398438 156.451171875 c 256
 138.7421875 156.451171875 159.977539062 177.686523438 159.977539062 204.0703125 c 256
 159.977539062 230.454101562 138.7421875 251.689453125 112.358398438 251.689453125 c 256
 85.974609375 251.689453125 64.7392578125 230.454101562 64.7392578125 204.0703125 c 256
39.0986328125 204.0703125 m 256
 39.0986328125 244.66015625 71.7685546875 277.330078125 112.358398438 277.330078125 c 256
 152.948242188 277.330078125 185.618164062 244.66015625 185.618164062 204.0703125 c 256
 185.618164062 163.48046875 152.948242188 130.810546875 112.358398438 130.810546875 c 256
 71.7685546875 130.810546875 39.0986328125 163.48046875 39.0986328125 204.0703125 c 256
EndSplineSet
EndChar
